<svg width="905" height="137" viewBox="0 0 905 137" fill="none" xmlns="http://www.w3.org/2000/svg">
<path d="M9.16204 7.35332H23.7799L54.8203 109.678L85.8607 7.35332H97.0496L127.549 109.859L158.589 7.35332H173.207L135.489 133.5H121.774L91.0942 30.4531L60.5952 133.5H46.8797L9.16204 7.35332ZM218.792 136.207C203.031 136.207 190.699 132.177 181.796 124.116C173.013 116.055 168.622 104.806 168.622 90.3683C168.622 76.1715 172.592 64.9224 180.533 56.6209C188.473 48.3194 199.783 44.1687 214.461 44.1687C224.326 44.1687 232.688 46.0937 239.546 49.9436C246.403 53.6733 251.577 58.8467 255.066 65.4638C258.555 72.0809 260.299 79.6004 260.299 88.0222V95.6019H181.615C182.097 105.467 185.706 112.867 192.444 117.799C199.301 122.732 208.565 125.199 220.236 125.199C225.89 125.199 231.424 124.717 236.839 123.755C242.373 122.672 247.306 121.228 251.637 119.424V131.154C248.027 132.598 243.095 133.801 236.839 134.763C230.703 135.726 224.687 136.207 218.792 136.207ZM247.306 85.6762C247.065 76.2919 244.178 68.8927 238.643 63.4787C233.109 58.0647 224.988 55.3576 214.28 55.3576C203.813 55.3576 195.812 58.185 190.278 63.8396C184.744 69.3739 181.856 76.6528 181.615 85.6762H247.306ZM324.437 136.207C316.136 136.207 308.857 134.763 302.601 131.876C296.465 128.868 291.111 124.356 286.539 118.341V133.5H273.004V0.134638H286.9V61.4935C290.63 55.8389 295.863 51.5678 302.601 48.6803C309.338 45.6726 316.617 44.1687 324.437 44.1687C332.979 44.1687 340.679 46.0937 347.537 49.9436C354.515 53.7936 359.929 59.2678 363.779 66.3662C367.749 73.3442 369.734 81.3449 369.734 90.3683C369.734 99.512 367.749 107.573 363.779 114.551C359.809 121.529 354.395 126.883 347.537 130.613C340.679 134.342 332.979 136.207 324.437 136.207ZM321.55 125.199C327.926 125.199 333.701 123.755 338.874 120.867C344.168 117.98 348.319 113.889 351.327 108.596C354.334 103.302 355.838 97.2261 355.838 90.3683C355.838 83.5105 354.334 77.4348 351.327 72.1411C348.319 66.8474 344.168 62.7568 338.874 59.8693C333.701 56.8615 327.926 55.3576 321.55 55.3576C313.368 55.3576 306.09 57.5232 299.713 61.8545C293.457 66.1857 289.186 72.0809 286.9 79.5403V101.196C289.306 108.656 293.577 114.551 299.713 118.882C305.969 123.093 313.248 125.199 321.55 125.199Z" fill="#BBCE0B"/>
<path d="M401.679 7.35332H446.976C460.812 7.35332 472.903 9.87987 483.25 14.933C493.597 19.986 501.537 27.2649 507.072 36.7695C512.726 46.1538 515.554 57.1623 515.554 69.795C515.554 90.7292 509.418 106.61 497.146 117.438C484.874 128.146 467.85 133.5 446.074 133.5H401.679V7.35332ZM448.781 106.61C459.729 106.61 468.091 103.302 473.866 96.6847C479.761 90.0675 482.708 81.1043 482.708 69.795C482.708 59.4482 479.761 50.9663 473.866 44.3491C468.091 37.6117 460.09 34.243 449.863 34.243H433.621V106.61H448.781ZM579.109 136.207C562.145 136.207 548.791 132.237 539.045 124.296C529.42 116.356 524.608 105.106 524.608 90.5488C524.608 76.2317 528.879 64.9224 537.421 56.6209C546.084 48.3194 558.536 44.1687 574.778 44.1687C585.125 44.1687 593.968 46.1538 601.307 50.1241C608.766 53.9741 614.36 59.3279 618.09 66.1857C621.94 72.9231 623.865 80.5629 623.865 89.105V100.835H554.746C555.949 105.648 558.957 109.137 563.769 111.303C568.582 113.468 575.139 114.551 583.44 114.551C589.095 114.551 594.87 114.07 600.765 113.107C606.781 112.145 611.954 110.821 616.285 109.137V130.071C611.834 131.876 606.239 133.32 599.502 134.402C592.885 135.605 586.087 136.207 579.109 136.207ZM593.907 80.984C593.426 76.2919 591.501 72.6224 588.132 69.9755C584.764 67.3286 580.132 66.0052 574.236 66.0052C568.461 66.0052 563.89 67.3888 560.521 70.156C557.152 72.8028 555.227 76.4122 554.746 80.984H593.907ZM636.427 0.134638H668.189V133.5H636.427V0.134638ZM701.328 35.3258C696.515 35.3258 692.485 33.7617 689.236 30.6336C685.988 27.5055 684.364 23.5352 684.364 18.7228C684.364 14.0306 685.988 10.1205 689.236 6.99239C692.485 3.74398 696.515 2.11977 701.328 2.11977C706.02 2.11977 709.99 3.74398 713.239 6.99239C716.607 10.1205 718.292 14.0306 718.292 18.7228C718.292 23.4149 716.607 27.3852 713.239 30.6336C709.99 33.7617 706.02 35.3258 701.328 35.3258ZM685.447 46.8757H717.209V133.5H685.447V46.8757ZM772.129 136.207C761.421 136.207 753.3 133.259 747.766 127.364C742.352 121.349 739.645 113.167 739.645 102.821V68.8927H727.373V46.8757H739.645V20.8884H771.407V46.8757H791.258V68.8927H771.407V98.4893C771.407 103.181 772.249 106.55 773.933 108.596C775.738 110.641 778.866 111.663 783.318 111.663C787.288 111.663 791.258 110.581 795.229 108.415V132.056C792.1 133.5 788.732 134.523 785.122 135.124C781.633 135.846 777.302 136.207 772.129 136.207ZM855.097 136.207C838.133 136.207 824.779 132.237 815.033 124.296C805.408 116.356 800.596 105.106 800.596 90.5488C800.596 76.2317 804.867 64.9224 813.409 56.6209C822.072 48.3194 834.524 44.1687 850.766 44.1687C861.113 44.1687 869.956 46.1538 877.295 50.1241C884.754 53.9741 890.348 59.3279 894.078 66.1857C897.928 72.9231 899.853 80.5629 899.853 89.105V100.835H830.734C831.937 105.648 834.945 109.137 839.757 111.303C844.57 113.468 851.127 114.551 859.428 114.551C865.083 114.551 870.858 114.07 876.753 113.107C882.769 112.145 887.942 110.821 892.273 109.137V130.071C887.822 131.876 882.227 133.32 875.49 134.402C868.873 135.605 862.075 136.207 855.097 136.207ZM869.895 80.984C869.414 76.2919 867.489 72.6224 864.121 69.9755C860.752 67.3286 856.12 66.0052 850.225 66.0052C844.45 66.0052 839.878 67.3888 836.509 70.156C833.14 72.8028 831.215 76.4122 830.734 80.984H869.895Z" fill="white"/>
</svg>
