<svg width="366" height="21" viewBox="0 0 366 21" fill="none" xmlns="http://www.w3.org/2000/svg">
<path d="M5 16L19.831 8.49005C26.647 5.03865 34.6991 5.03865 41.5151 8.49006L45.5041 10.5099C52.3201 13.9614 60.3722 13.9614 67.1882 10.5099L71.1772 8.49005C77.9932 5.03865 86.0453 5.03865 92.8613 8.49006L96.8503 10.5099C103.666 13.9614 111.718 13.9614 118.534 10.5099L122.523 8.49005C129.339 5.03865 137.391 5.03865 144.207 8.49006L148.196 10.5099C155.012 13.9614 163.064 13.9614 169.881 10.5099L173.869 8.49005C180.686 5.03865 188.738 5.03865 195.554 8.49006L199.543 10.5099C206.359 13.9614 214.411 13.9614 221.227 10.5099L225.216 8.49005C232.032 5.03865 240.084 5.03865 246.9 8.49006L250.889 10.5099C257.705 13.9614 265.757 13.9614 272.573 10.5099L276.562 8.49005C283.378 5.03865 291.43 5.03865 298.246 8.49006L302.235 10.5099C309.051 13.9614 317.103 13.9614 323.919 10.5099L328.754 8.06144C335.09 4.85333 342.521 4.61573 349.049 7.41255L361 12.5333" stroke="#D36767" stroke-width="10" stroke-linecap="round"/>
</svg>
