<svg width="24" height="894" viewBox="0 0 24 894" fill="none" xmlns="http://www.w3.org/2000/svg">
<path d="M23.2892 12.0661C23.2892 18.2522 18.2744 23.267 12.0883 23.267C5.90225 23.267 0.887451 18.2522 0.887451 12.0661C0.887451 5.88003 5.90225 0.865234 12.0883 0.865234C18.2744 0.865234 23.2892 5.88003 23.2892 12.0661Z" fill="#F2F2F2"/>
<path d="M23.2892 49.8908C23.2892 56.0769 18.2744 61.0917 12.0883 61.0917C5.90225 61.0917 0.887451 56.0769 0.887451 49.8908C0.887451 43.7047 5.90225 38.6899 12.0883 38.6899C18.2744 38.6899 23.2892 43.7047 23.2892 49.8908Z" fill="#F2F2F2"/>
<path d="M23.2892 87.7155C23.2892 93.9016 18.2744 98.9164 12.0883 98.9164C5.90225 98.9164 0.887451 93.9016 0.887451 87.7155C0.887451 81.5294 5.90225 76.5146 12.0883 76.5146C18.2744 76.5146 23.2892 81.5294 23.2892 87.7155Z" fill="#F2F2F2"/>
<path d="M23.2892 125.54C23.2892 131.726 18.2744 136.741 12.0883 136.741C5.90225 136.741 0.887451 131.726 0.887451 125.54C0.887451 119.354 5.90225 114.339 12.0883 114.339C18.2744 114.339 23.2892 119.354 23.2892 125.54Z" fill="#F2F2F2"/>
<path d="M23.2892 163.365C23.2892 169.551 18.2744 174.566 12.0883 174.566C5.90225 174.566 0.887451 169.551 0.887451 163.365C0.887451 157.179 5.90225 152.164 12.0883 152.164C18.2744 152.164 23.2892 157.179 23.2892 163.365Z" fill="#F2F2F2"/>
<path d="M23.2892 201.19C23.2892 207.376 18.2744 212.391 12.0883 212.391C5.90225 212.391 0.887451 207.376 0.887451 201.19C0.887451 195.004 5.90225 189.989 12.0883 189.989C18.2744 189.989 23.2892 195.004 23.2892 201.19Z" fill="#F2F2F2"/>
<path d="M23.2892 239.014C23.2892 245.2 18.2744 250.215 12.0883 250.215C5.90225 250.215 0.887451 245.2 0.887451 239.014C0.887451 232.828 5.90225 227.813 12.0883 227.813C18.2744 227.813 23.2892 232.828 23.2892 239.014Z" fill="#F2F2F2"/>
<path d="M23.2892 276.839C23.2892 283.025 18.2744 288.04 12.0883 288.04C5.90225 288.04 0.887451 283.025 0.887451 276.839C0.887451 270.653 5.90225 265.638 12.0883 265.638C18.2744 265.638 23.2892 270.653 23.2892 276.839Z" fill="#F2F2F2"/>
<path d="M23.2892 314.664C23.2892 320.85 18.2744 325.865 12.0883 325.865C5.90225 325.865 0.887451 320.85 0.887451 314.664C0.887451 308.478 5.90225 303.463 12.0883 303.463C18.2744 303.463 23.2892 308.478 23.2892 314.664Z" fill="#F2F2F2"/>
<path d="M23.2892 352.488C23.2892 358.675 18.2744 363.689 12.0883 363.689C5.90225 363.689 0.887451 358.675 0.887451 352.488C0.887451 346.302 5.90225 341.288 12.0883 341.288C18.2744 341.288 23.2892 346.302 23.2892 352.488Z" fill="#F2F2F2"/>
<path d="M23.2892 390.313C23.2892 396.499 18.2744 401.514 12.0883 401.514C5.90225 401.514 0.887451 396.499 0.887451 390.313C0.887451 384.127 5.90225 379.112 12.0883 379.112C18.2744 379.112 23.2892 384.127 23.2892 390.313Z" fill="#F2F2F2"/>
<path d="M23.2892 428.138C23.2892 434.324 18.2744 439.339 12.0883 439.339C5.90225 439.339 0.887451 434.324 0.887451 428.138C0.887451 421.952 5.90225 416.937 12.0883 416.937C18.2744 416.937 23.2892 421.952 23.2892 428.138Z" fill="#F2F2F2"/>
<path d="M23.2892 12.0661C23.2892 18.2522 18.2744 23.267 12.0883 23.267C5.90225 23.267 0.887451 18.2522 0.887451 12.0661C0.887451 5.88003 5.90225 0.865234 12.0883 0.865234C18.2744 0.865234 23.2892 5.88003 23.2892 12.0661Z" fill="#F2F2F2"/>
<path d="M23.2892 49.8908C23.2892 56.0769 18.2744 61.0917 12.0883 61.0917C5.90225 61.0917 0.887451 56.0769 0.887451 49.8908C0.887451 43.7047 5.90225 38.6899 12.0883 38.6899C18.2744 38.6899 23.2892 43.7047 23.2892 49.8908Z" fill="#F2F2F2"/>
<path d="M23.2892 87.7155C23.2892 93.9016 18.2744 98.9164 12.0883 98.9164C5.90225 98.9164 0.887451 93.9016 0.887451 87.7155C0.887451 81.5294 5.90225 76.5146 12.0883 76.5146C18.2744 76.5146 23.2892 81.5294 23.2892 87.7155Z" fill="#F2F2F2"/>
<path d="M23.2892 125.54C23.2892 131.726 18.2744 136.741 12.0883 136.741C5.90225 136.741 0.887451 131.726 0.887451 125.54C0.887451 119.354 5.90225 114.339 12.0883 114.339C18.2744 114.339 23.2892 119.354 23.2892 125.54Z" fill="#F2F2F2"/>
<path d="M23.2892 163.365C23.2892 169.551 18.2744 174.566 12.0883 174.566C5.90225 174.566 0.887451 169.551 0.887451 163.365C0.887451 157.179 5.90225 152.164 12.0883 152.164C18.2744 152.164 23.2892 157.179 23.2892 163.365Z" fill="#F2F2F2"/>
<path d="M23.2892 201.19C23.2892 207.376 18.2744 212.391 12.0883 212.391C5.90225 212.391 0.887451 207.376 0.887451 201.19C0.887451 195.004 5.90225 189.989 12.0883 189.989C18.2744 189.989 23.2892 195.004 23.2892 201.19Z" fill="#F2F2F2"/>
<path d="M23.2892 239.014C23.2892 245.2 18.2744 250.215 12.0883 250.215C5.90225 250.215 0.887451 245.2 0.887451 239.014C0.887451 232.828 5.90225 227.813 12.0883 227.813C18.2744 227.813 23.2892 232.828 23.2892 239.014Z" fill="#F2F2F2"/>
<path d="M23.2892 276.839C23.2892 283.025 18.2744 288.04 12.0883 288.04C5.90225 288.04 0.887451 283.025 0.887451 276.839C0.887451 270.653 5.90225 265.638 12.0883 265.638C18.2744 265.638 23.2892 270.653 23.2892 276.839Z" fill="#F2F2F2"/>
<path d="M23.2892 314.664C23.2892 320.85 18.2744 325.865 12.0883 325.865C5.90225 325.865 0.887451 320.85 0.887451 314.664C0.887451 308.478 5.90225 303.463 12.0883 303.463C18.2744 303.463 23.2892 308.478 23.2892 314.664Z" fill="#F2F2F2"/>
<path d="M23.2892 352.488C23.2892 358.675 18.2744 363.689 12.0883 363.689C5.90225 363.689 0.887451 358.675 0.887451 352.488C0.887451 346.302 5.90225 341.288 12.0883 341.288C18.2744 341.288 23.2892 346.302 23.2892 352.488Z" fill="#F2F2F2"/>
<path d="M23.2892 390.313C23.2892 396.499 18.2744 401.514 12.0883 401.514C5.90225 401.514 0.887451 396.499 0.887451 390.313C0.887451 384.127 5.90225 379.112 12.0883 379.112C18.2744 379.112 23.2892 384.127 23.2892 390.313Z" fill="#F2F2F2"/>
<path d="M23.2892 428.138C23.2892 434.324 18.2744 439.339 12.0883 439.339C5.90225 439.339 0.887451 434.324 0.887451 428.138C0.887451 421.952 5.90225 416.937 12.0883 416.937C18.2744 416.937 23.2892 421.952 23.2892 428.138Z" fill="#F2F2F2"/>
<path d="M23.4017 466.42C23.4017 472.606 18.3869 477.62 12.2009 477.62C6.0148 477.62 1 472.606 1 466.42C1 460.234 6.0148 455.219 12.2009 455.219C18.3869 455.219 23.4017 460.234 23.4017 466.42Z" fill="#F2F2F2"/>
<path d="M23.4017 504.244C23.4017 510.43 18.3869 515.445 12.2009 515.445C6.0148 515.445 1 510.43 1 504.244C1 498.058 6.0148 493.043 12.2009 493.043C18.3869 493.043 23.4017 498.058 23.4017 504.244Z" fill="#F2F2F2"/>
<path d="M23.4017 542.069C23.4017 548.255 18.3869 553.27 12.2009 553.27C6.0148 553.27 1 548.255 1 542.069C1 535.883 6.0148 530.868 12.2009 530.868C18.3869 530.868 23.4017 535.883 23.4017 542.069Z" fill="#F2F2F2"/>
<path d="M23.4017 579.894C23.4017 586.08 18.3869 591.095 12.2009 591.095C6.0148 591.095 1 586.08 1 579.894C1 573.708 6.0148 568.693 12.2009 568.693C18.3869 568.693 23.4017 573.708 23.4017 579.894Z" fill="#F2F2F2"/>
<path d="M23.4017 617.718C23.4017 623.905 18.3869 628.919 12.2009 628.919C6.0148 628.919 1 623.905 1 617.718C1 611.532 6.0148 606.518 12.2009 606.518C18.3869 606.518 23.4017 611.532 23.4017 617.718Z" fill="#F2F2F2"/>
<path d="M23.4017 655.543C23.4017 661.729 18.3869 666.744 12.2009 666.744C6.0148 666.744 1 661.729 1 655.543C1 649.357 6.0148 644.342 12.2009 644.342C18.3869 644.342 23.4017 649.357 23.4017 655.543Z" fill="#F2F2F2"/>
<path d="M23.4017 693.368C23.4017 699.554 18.3869 704.569 12.2009 704.569C6.0148 704.569 1 699.554 1 693.368C1 687.182 6.0148 682.167 12.2009 682.167C18.3869 682.167 23.4017 687.182 23.4017 693.368Z" fill="#F2F2F2"/>
<path d="M23.4017 731.193C23.4017 737.379 18.3869 742.393 12.2009 742.393C6.0148 742.393 1 737.379 1 731.193C1 725.006 6.0148 719.992 12.2009 719.992C18.3869 719.992 23.4017 725.006 23.4017 731.193Z" fill="#F2F2F2"/>
<path d="M23.4017 769.017C23.4017 775.203 18.3869 780.218 12.2009 780.218C6.0148 780.218 1 775.203 1 769.017C1 762.831 6.0148 757.816 12.2009 757.816C18.3869 757.816 23.4017 762.831 23.4017 769.017Z" fill="#F2F2F2"/>
<path d="M23.4017 806.842C23.4017 813.028 18.3869 818.043 12.2009 818.043C6.0148 818.043 1 813.028 1 806.842C1 800.656 6.0148 795.641 12.2009 795.641C18.3869 795.641 23.4017 800.656 23.4017 806.842Z" fill="#F2F2F2"/>
<path d="M23.4017 844.667C23.4017 850.853 18.3869 855.868 12.2009 855.868C6.0148 855.868 1 850.853 1 844.667C1 838.481 6.0148 833.466 12.2009 833.466C18.3869 833.466 23.4017 838.481 23.4017 844.667Z" fill="#F2F2F2"/>
<path d="M23.4017 882.491C23.4017 888.677 18.3869 893.692 12.2009 893.692C6.0148 893.692 1 888.677 1 882.491C1 876.305 6.0148 871.291 12.2009 871.291C18.3869 871.291 23.4017 876.305 23.4017 882.491Z" fill="#F2F2F2"/>
</svg>
