<svg width="894" height="23" viewBox="0 0 894 23" fill="none" xmlns="http://www.w3.org/2000/svg">
<path d="M882.357 22.4233C876.171 22.4233 871.156 17.4085 871.156 11.2225C871.156 5.03641 876.171 0.0216064 882.357 0.0216064C888.543 0.0216064 893.558 5.03641 893.558 11.2225C893.558 17.4085 888.543 22.4233 882.357 22.4233Z" fill="#F2F2F2"/>
<path d="M844.533 22.4233C838.347 22.4233 833.332 17.4085 833.332 11.2225C833.332 5.03641 838.347 0.0216064 844.533 0.0216064C850.719 0.0216064 855.733 5.03641 855.733 11.2225C855.733 17.4085 850.719 22.4233 844.533 22.4233Z" fill="#F2F2F2"/>
<path d="M806.708 22.4233C800.522 22.4233 795.507 17.4085 795.507 11.2225C795.507 5.03641 800.522 0.0216064 806.708 0.0216064C812.894 0.0216064 817.909 5.03641 817.909 11.2225C817.909 17.4085 812.894 22.4233 806.708 22.4233Z" fill="#F2F2F2"/>
<path d="M768.883 22.4233C762.697 22.4233 757.682 17.4085 757.682 11.2225C757.682 5.03641 762.697 0.0216064 768.883 0.0216064C775.069 0.0216064 780.084 5.03641 780.084 11.2225C780.084 17.4085 775.069 22.4233 768.883 22.4233Z" fill="#F2F2F2"/>
<path d="M731.058 22.4233C724.872 22.4233 719.858 17.4085 719.858 11.2225C719.858 5.03641 724.872 0.0216064 731.058 0.0216064C737.245 0.0216064 742.259 5.03641 742.259 11.2225C742.259 17.4085 737.245 22.4233 731.058 22.4233Z" fill="#F2F2F2"/>
<path d="M693.234 22.4233C687.048 22.4233 682.033 17.4085 682.033 11.2225C682.033 5.03641 687.048 0.0216064 693.234 0.0216064C699.42 0.0216064 704.435 5.03641 704.435 11.2225C704.435 17.4085 699.42 22.4233 693.234 22.4233Z" fill="#F2F2F2"/>
<path d="M655.409 22.4233C649.223 22.4233 644.208 17.4085 644.208 11.2225C644.208 5.03641 649.223 0.0216064 655.409 0.0216064C661.595 0.0216064 666.61 5.03641 666.61 11.2225C666.61 17.4085 661.595 22.4233 655.409 22.4233Z" fill="#F2F2F2"/>
<path d="M617.584 22.4233C611.398 22.4233 606.383 17.4085 606.383 11.2225C606.383 5.03641 611.398 0.0216064 617.584 0.0216064C623.77 0.0216064 628.785 5.03641 628.785 11.2225C628.785 17.4085 623.77 22.4233 617.584 22.4233Z" fill="#F2F2F2"/>
<path d="M579.76 22.4233C573.574 22.4233 568.559 17.4085 568.559 11.2225C568.559 5.03641 573.574 0.0216064 579.76 0.0216064C585.946 0.0216064 590.961 5.03641 590.961 11.2225C590.961 17.4085 585.946 22.4233 579.76 22.4233Z" fill="#F2F2F2"/>
<path d="M541.935 22.4233C535.749 22.4233 530.734 17.4085 530.734 11.2225C530.734 5.03641 535.749 0.0216064 541.935 0.0216064C548.121 0.0216064 553.136 5.03641 553.136 11.2225C553.136 17.4085 548.121 22.4233 541.935 22.4233Z" fill="#F2F2F2"/>
<path d="M504.11 22.4233C497.924 22.4233 492.909 17.4085 492.909 11.2225C492.909 5.03641 497.924 0.0216064 504.11 0.0216064C510.296 0.0216064 515.311 5.03641 515.311 11.2225C515.311 17.4085 510.296 22.4233 504.11 22.4233Z" fill="#F2F2F2"/>
<path d="M466.286 22.4233C460.099 22.4233 455.085 17.4085 455.085 11.2225C455.085 5.03641 460.099 0.0216064 466.286 0.0216064C472.472 0.0216064 477.486 5.03641 477.486 11.2225C477.486 17.4085 472.472 22.4233 466.286 22.4233Z" fill="#F2F2F2"/>
<path d="M882.357 22.4233C876.171 22.4233 871.156 17.4085 871.156 11.2225C871.156 5.03641 876.171 0.0216064 882.357 0.0216064C888.543 0.0216064 893.558 5.03641 893.558 11.2225C893.558 17.4085 888.543 22.4233 882.357 22.4233Z" fill="#F2F2F2"/>
<path d="M844.533 22.4233C838.347 22.4233 833.332 17.4085 833.332 11.2225C833.332 5.03641 838.347 0.0216064 844.533 0.0216064C850.719 0.0216064 855.733 5.03641 855.733 11.2225C855.733 17.4085 850.719 22.4233 844.533 22.4233Z" fill="#F2F2F2"/>
<path d="M806.708 22.4233C800.522 22.4233 795.507 17.4085 795.507 11.2225C795.507 5.03641 800.522 0.0216064 806.708 0.0216064C812.894 0.0216064 817.909 5.03641 817.909 11.2225C817.909 17.4085 812.894 22.4233 806.708 22.4233Z" fill="#F2F2F2"/>
<path d="M768.883 22.4233C762.697 22.4233 757.682 17.4085 757.682 11.2225C757.682 5.03641 762.697 0.0216064 768.883 0.0216064C775.069 0.0216064 780.084 5.03641 780.084 11.2225C780.084 17.4085 775.069 22.4233 768.883 22.4233Z" fill="#F2F2F2"/>
<path d="M731.058 22.4233C724.872 22.4233 719.858 17.4085 719.858 11.2225C719.858 5.03641 724.872 0.0216064 731.058 0.0216064C737.245 0.0216064 742.259 5.03641 742.259 11.2225C742.259 17.4085 737.245 22.4233 731.058 22.4233Z" fill="#F2F2F2"/>
<path d="M693.234 22.4233C687.048 22.4233 682.033 17.4085 682.033 11.2225C682.033 5.03641 687.048 0.0216064 693.234 0.0216064C699.42 0.0216064 704.435 5.03641 704.435 11.2225C704.435 17.4085 699.42 22.4233 693.234 22.4233Z" fill="#F2F2F2"/>
<path d="M655.409 22.4233C649.223 22.4233 644.208 17.4085 644.208 11.2225C644.208 5.03641 649.223 0.0216064 655.409 0.0216064C661.595 0.0216064 666.61 5.03641 666.61 11.2225C666.61 17.4085 661.595 22.4233 655.409 22.4233Z" fill="#F2F2F2"/>
<path d="M617.584 22.4233C611.398 22.4233 606.383 17.4085 606.383 11.2225C606.383 5.03641 611.398 0.0216064 617.584 0.0216064C623.77 0.0216064 628.785 5.03641 628.785 11.2225C628.785 17.4085 623.77 22.4233 617.584 22.4233Z" fill="#F2F2F2"/>
<path d="M579.76 22.4233C573.574 22.4233 568.559 17.4085 568.559 11.2225C568.559 5.03641 573.574 0.0216064 579.76 0.0216064C585.946 0.0216064 590.961 5.03641 590.961 11.2225C590.961 17.4085 585.946 22.4233 579.76 22.4233Z" fill="#F2F2F2"/>
<path d="M541.935 22.4233C535.749 22.4233 530.734 17.4085 530.734 11.2225C530.734 5.03641 535.749 0.0216064 541.935 0.0216064C548.121 0.0216064 553.136 5.03641 553.136 11.2225C553.136 17.4085 548.121 22.4233 541.935 22.4233Z" fill="#F2F2F2"/>
<path d="M504.11 22.4233C497.924 22.4233 492.909 17.4085 492.909 11.2225C492.909 5.03641 497.924 0.0216064 504.11 0.0216064C510.296 0.0216064 515.311 5.03641 515.311 11.2225C515.311 17.4085 510.296 22.4233 504.11 22.4233Z" fill="#F2F2F2"/>
<path d="M466.286 22.4233C460.099 22.4233 455.085 17.4085 455.085 11.2225C455.085 5.03641 460.099 0.0216064 466.286 0.0216064C472.472 0.0216064 477.486 5.03641 477.486 11.2225C477.486 17.4085 472.472 22.4233 466.286 22.4233Z" fill="#F2F2F2"/>
<path d="M428.004 22.5359C421.818 22.5359 416.803 17.5211 416.803 11.335C416.803 5.14896 421.818 0.134155 428.004 0.134155C434.19 0.134155 439.205 5.14896 439.205 11.335C439.205 17.5211 434.19 22.5359 428.004 22.5359Z" fill="#F2F2F2"/>
<path d="M390.179 22.5359C383.993 22.5359 378.978 17.5211 378.978 11.335C378.978 5.14896 383.993 0.134155 390.179 0.134155C396.365 0.134155 401.38 5.14896 401.38 11.335C401.38 17.5211 396.365 22.5359 390.179 22.5359Z" fill="#F2F2F2"/>
<path d="M352.354 22.5359C346.168 22.5359 341.154 17.5211 341.154 11.335C341.154 5.14896 346.168 0.134155 352.354 0.134155C358.54 0.134155 363.555 5.14896 363.555 11.335C363.555 17.5211 358.54 22.5359 352.354 22.5359Z" fill="#F2F2F2"/>
<path d="M314.53 22.5359C308.344 22.5359 303.329 17.5211 303.329 11.335C303.329 5.14896 308.344 0.134155 314.53 0.134155C320.716 0.134155 325.731 5.14896 325.731 11.335C325.731 17.5211 320.716 22.5359 314.53 22.5359Z" fill="#F2F2F2"/>
<path d="M276.705 22.5359C270.519 22.5359 265.504 17.5211 265.504 11.335C265.504 5.14896 270.519 0.134155 276.705 0.134155C282.891 0.134155 287.906 5.14896 287.906 11.335C287.906 17.5211 282.891 22.5359 276.705 22.5359Z" fill="#F2F2F2"/>
<path d="M238.88 22.5359C232.694 22.5359 227.679 17.5211 227.679 11.335C227.679 5.14896 232.694 0.134155 238.88 0.134155C245.066 0.134155 250.081 5.14896 250.081 11.335C250.081 17.5211 245.066 22.5359 238.88 22.5359Z" fill="#F2F2F2"/>
<path d="M201.056 22.5359C194.869 22.5359 189.855 17.5211 189.855 11.335C189.855 5.14896 194.869 0.134155 201.056 0.134155C207.242 0.134155 212.256 5.14896 212.256 11.335C212.256 17.5211 207.242 22.5359 201.056 22.5359Z" fill="#F2F2F2"/>
<path d="M163.231 22.5359C157.045 22.5359 152.03 17.5211 152.03 11.335C152.03 5.14896 157.045 0.134155 163.231 0.134155C169.417 0.134155 174.432 5.14896 174.432 11.335C174.432 17.5211 169.417 22.5359 163.231 22.5359Z" fill="#F2F2F2"/>
<path d="M125.406 22.5359C119.22 22.5359 114.205 17.5211 114.205 11.335C114.205 5.14896 119.22 0.134155 125.406 0.134155C131.592 0.134155 136.607 5.14896 136.607 11.335C136.607 17.5211 131.592 22.5359 125.406 22.5359Z" fill="#F2F2F2"/>
<path d="M87.5814 22.5359C81.3954 22.5359 76.3806 17.5211 76.3806 11.335C76.3806 5.14896 81.3954 0.134155 87.5814 0.134155C93.7675 0.134155 98.7823 5.14896 98.7823 11.335C98.7823 17.5211 93.7675 22.5359 87.5814 22.5359Z" fill="#F2F2F2"/>
<path d="M49.7567 22.5359C43.5707 22.5359 38.5559 17.5211 38.5559 11.335C38.5559 5.14896 43.5707 0.134155 49.7567 0.134155C55.9428 0.134155 60.9576 5.14896 60.9576 11.335C60.9576 17.5211 55.9428 22.5359 49.7567 22.5359Z" fill="#F2F2F2"/>
<path d="M11.932 22.5359C5.74596 22.5359 0.731166 17.5211 0.731166 11.335C0.731166 5.14896 5.74596 0.134155 11.932 0.134155C18.1181 0.134155 23.1329 5.14896 23.1329 11.335C23.1329 17.5211 18.1181 22.5359 11.932 22.5359Z" fill="#F2F2F2"/>
</svg>
